<svg xmlns="http://www.w3.org/2000/svg" viewBox="0 0 96 96" fill="none">
  <defs>
    <linearGradient id="rules" x1="23" y1="14" x2="73" y2="45" gradientUnits="userSpaceOnUse">
      <stop stop-color="#8B6BFF"/>
      <stop offset="1" stop-color="#5F36F5"/>
    </linearGradient>
    <linearGradient id="nib" x1="48" y1="50" x2="48" y2="90" gradientUnits="userSpaceOnUse">
      <stop stop-color="#FFFFFF"/>
      <stop offset="1" stop-color="#C9C9D6"/>
    </linearGradient>
  </defs>
  <rect width="96" height="96" rx="22" fill="#0B0B0D"/>
  <g fill="url(#rules)" transform="translate(16 10) scale(0.5)">
    <rect x="7" y="0" width="50" height="7" rx="3.5"/>
    <rect x="7" y="12" width="50" height="7" rx="3.5" opacity="0.92"/>
    <rect x="7" y="24" width="50" height="7" rx="3.5" opacity="0.84"/>
  </g>
  <path fill-rule="evenodd" clip-rule="evenodd" fill="url(#nib)" transform="translate(16 10) scale(0.5)"
    d="M13 36H51A6 6 0 0 1 57 42V58L32 84L7 58V42A6 6 0 0 1 13 36ZM32 44.6A5.6 5.6 0 1 0 32 55.8A5.6 5.6 0 1 0 32 44.6ZM31.05 55.5L32 80.2L32.95 55.5Z"/>
</svg>
